M48
; DRILL file {KiCad (6.0.0)} date Tue Feb 15 17:31:04 2022
; FORMAT={-:-/ absolute / inch / decimal}
; #@! TF.CreationDate,2022-02-15T17:31:04-06:00
; #@! TF.GenerationSoftware,Kicad,Pcbnew,(6.0.0)
; #@! TF.FileFunction,Plated,1,2,PTH
FMAT,2
INCH
; #@! TA.AperFunction,Plated,PTH,ViaDrill
T1C0.0157
; #@! TA.AperFunction,Plated,PTH,ComponentDrill
T2C0.0291
; #@! TA.AperFunction,Plated,PTH,ComponentDrill
T3C0.0315
; #@! TA.AperFunction,Plated,PTH,ComponentDrill
T4C0.0512
; #@! TA.AperFunction,Plated,PTH,ComponentDrill
T5C0.0791
; #@! TA.AperFunction,Plated,PTH,ComponentDrill
T6C0.1260
; #@! TA.AperFunction,Plated,PTH,ComponentDrill
T7C0.1402
%
G90
G05
T1
X3.5354Y-3.2638
X3.5512Y-2.686
X3.6391Y-3.649
X3.6816Y-3.6511
X3.7087Y-2.5561
X3.7087Y-2.6378
X3.7087Y-2.8228
X3.7126Y-3.0433
X3.752Y-2.4109
X3.7547Y-3.8049
X3.7598Y-2.2441
X3.7598Y-3.8814
X3.8307Y-2.4252
X3.8307Y-2.6339
X3.8661Y-2.5669
X3.8661Y-3.7047
X3.874Y-2.4252
X3.8858Y-2.3307
X3.8937Y-2.6614
X3.9094Y-3.2402
X3.9606Y-2.7008
X3.9646Y-2.3937
X3.9646Y-3.437
X4.0389Y-3.7675
X4.0394Y-2.3307
X4.0394Y-3.9173
X4.0787Y-3.2362
X4.1181Y-2.4252
X4.126Y-3.1969
X4.1339Y-3.5157
X4.1363Y-2.5984
X4.1437Y-3.7992
X4.1437Y-3.8809
X4.1654Y-3.1969
X4.2156Y-2.689
X4.218Y-2.5984
X4.2244Y-2.4114
X4.2244Y-3.4252
X4.2717Y-2.3307
X4.2835Y-2.622
X4.2992Y-2.4419
X4.311Y-2.6614
X4.3268Y-3.622
X4.3307Y-3.7697
X4.3583Y-2.4399
X4.3819Y-2.6614
X4.3898Y-2.5551
X4.3937Y-4.2283
X4.4016Y-3.6899
X4.4119Y-2.7229
X4.44Y-2.1663
X4.4567Y-2.4409
X4.4783Y-3.7677
X4.4803Y-3.815
X4.5394Y-2.7165
X4.5472Y-3.7303
X4.5512Y-3.5394
X4.5551Y-2.9528
X4.5945Y-3.1614
X4.6181Y-2.7899
X4.622Y-2.9528
X4.626Y-4.311
X4.6457Y-3.7303
X4.6496Y-3.3937
X4.6693Y-2.6191
X4.7362Y-3.7244
X4.7953Y-4.0236
X4.8543Y-4.0748
X4.8543Y-4.1565
X4.8917Y-3.8386
X4.9685Y-4.3189
X5.189Y-3.7008
X5.2874Y-4.1457
X5.7008Y-4.2087
X5.7008Y-4.3661
X5.7165Y-2.8445
X6.3863Y-3.6614
X6.468Y-3.6614
T2
X3.9945Y-2.1562
X3.9945Y-2.2062
X4.0445Y-2.1562
X4.0445Y-2.2062
X4.0945Y-2.1562
X4.0945Y-2.2062
X4.1445Y-2.1562
X4.1445Y-2.2062
X4.1945Y-2.1562
X4.1945Y-2.2062
T3
X3.5563Y-2.1654
X3.6563Y-2.1654
T4
X3.3661Y-2.5098
X3.3661Y-2.7067
X3.3661Y-2.9035
X3.3661Y-3.1004
X3.3661Y-3.4337
X3.3661Y-3.6305
X3.3661Y-3.8274
X3.3661Y-4.0242
X3.3661Y-4.2211
X3.7191Y-4.3898
X3.9159Y-4.3898
X4.1128Y-4.3898
X4.3096Y-4.3898
X4.5065Y-4.3898
X5.2053Y-4.3898
X5.4022Y-4.3898
X5.599Y-4.3898
X5.7959Y-4.3898
X5.9927Y-4.3898
T5
X5.4281Y-2.5535
X5.4281Y-2.9126
X5.6033Y-2.5535
X5.6033Y-2.9126
T6
X3.2382Y-2.126
X3.2382Y-4.5276
X6.5059Y-2.126
X6.5059Y-4.5276
T7
X5.1752Y-2.313
X5.1752Y-3.1531
X5.8563Y-2.313
X5.8563Y-3.1531
T0
M30
