M48
; DRILL file {KiCad (6.0.0)} date Thu Feb 17 00:51:44 2022
; FORMAT={-:-/ absolute / inch / decimal}
; #@! TF.CreationDate,2022-02-17T00:51:44-06:00
; #@! TF.GenerationSoftware,Kicad,Pcbnew,(6.0.0)
; #@! TF.FileFunction,Plated,1,2,PTH
FMAT,2
INCH
; #@! TA.AperFunction,Plated,PTH,ViaDrill
T1C0.0157
; #@! TA.AperFunction,Plated,PTH,ComponentDrill
T2C0.0291
; #@! TA.AperFunction,Plated,PTH,ComponentDrill
T3C0.0315
; #@! TA.AperFunction,Plated,PTH,ComponentDrill
T4C0.0512
; #@! TA.AperFunction,Plated,PTH,ComponentDrill
T5C0.0791
; #@! TA.AperFunction,Plated,PTH,ComponentDrill
T6C0.1260
; #@! TA.AperFunction,Plated,PTH,ComponentDrill
T7C0.1402
%
G90
G05
T1
X3.4547Y-3.5236
X3.5335Y-3.5236
X3.5354Y-3.2638
X3.5512Y-2.686
X3.5551Y-3.0433
X3.5561Y-2.8445
X3.569Y-3.9113
X3.5827Y-3.7598
X3.693Y-2.6711
X3.752Y-2.4109
X3.7547Y-3.8049
X3.7598Y-2.2441
X3.7598Y-3.8814
X3.7697Y-2.5591
X3.7756Y-2.6693
X3.7992Y-3.7008
X3.8002Y-2.8976
X3.8002Y-3.2087
X3.8228Y-2.6929
X3.8307Y-2.4025
X3.8317Y-2.937
X3.8353Y-2.7302
X3.8386Y-3.2362
X3.8681Y-3.9961
X3.874Y-2.4252
X3.8858Y-2.3307
X3.8858Y-2.7638
X3.9094Y-3.2402
X3.9319Y-4.2189
X3.9606Y-2.7008
X3.9646Y-2.3937
X3.9646Y-3.437
X4.0059Y-2.8642
X4.0079Y-3.063
X4.0136Y-4.2283
X4.0389Y-3.7675
X4.0394Y-2.3307
X4.0394Y-3.9173
X4.0787Y-3.2362
X4.115Y-2.7205
X4.1181Y-2.4252
X4.126Y-3.1969
X4.1339Y-3.5157
X4.1417Y-2.5866
X4.1427Y-2.6457
X4.1437Y-3.7992
X4.1437Y-3.8809
X4.1654Y-3.1969
X4.2244Y-2.4114
X4.2244Y-2.6457
X4.2244Y-3.4252
X4.252Y-2.7283
X4.2626Y-4.0264
X4.2677Y-3.2559
X4.2717Y-2.3307
X4.2835Y-2.622
X4.2921Y-4.0594
X4.2992Y-2.4419
X4.311Y-2.6614
X4.3268Y-3.622
X4.3307Y-3.7697
X4.3583Y-2.4399
X4.3819Y-2.6614
X4.3898Y-2.5551
X4.4016Y-3.6899
X4.4119Y-2.7229
X4.439Y-2.2146
X4.4567Y-2.4409
X4.4783Y-3.7677
X4.4783Y-3.9173
X4.4803Y-3.815
X4.5394Y-2.7165
X4.5472Y-3.7303
X4.5512Y-3.5394
X4.5551Y-2.9528
X4.5945Y-3.1614
X4.6181Y-2.7899
X4.622Y-2.9528
X4.6457Y-3.7303
X4.6496Y-3.3937
X4.6693Y-2.6191
X4.7362Y-3.7283
X4.7953Y-4.0236
X4.8135Y-4.2283
X4.8691Y-4.0896
X4.8786Y-4.0397
X4.8819Y-3.9961
X4.8917Y-3.8386
X4.8952Y-4.2283
X4.9685Y-4.3189
X5.1929Y-3.7283
X5.2028Y-4.25
X5.2844Y-4.25
X5.2874Y-4.1457
X5.4134Y-2.2146
X5.6201Y-2.2146
X5.7165Y-2.8445
X5.9055Y-2.6181
X5.9055Y-2.815
X6.2303Y-3.8563
X6.3863Y-3.6614
X6.468Y-3.6614
T2
X3.9945Y-2.1562
X3.9945Y-2.2062
X4.0445Y-2.1562
X4.0445Y-2.2062
X4.0945Y-2.1562
X4.0945Y-2.2062
X4.1445Y-2.1562
X4.1445Y-2.2062
X4.1945Y-2.1562
X4.1945Y-2.2062
T3
X3.5563Y-2.1654
X3.6563Y-2.1654
T4
X3.3264Y-3.4337
X3.3264Y-3.6305
X3.3264Y-3.8274
X3.3264Y-4.0242
X3.3264Y-4.2211
X3.7392Y-4.4287
X3.936Y-4.4287
X4.1329Y-4.4287
X4.3297Y-4.4287
X4.5266Y-4.4287
X5.2055Y-4.4358
X5.4024Y-4.4358
X5.5992Y-4.4358
X5.7961Y-4.4358
X5.9929Y-4.4358
X6.4425Y-2.615
X6.4425Y-2.8118
X6.4425Y-3.0087
X6.4425Y-3.2055
T5
X5.4281Y-2.5535
X5.4281Y-2.9126
X5.6033Y-2.5535
X5.6033Y-2.9126
T6
X3.2382Y-2.126
X3.2382Y-4.5276
X6.5059Y-2.126
X6.5059Y-4.5276
T7
X5.1752Y-2.313
X5.1752Y-3.1531
X5.8563Y-2.313
X5.8563Y-3.1531
T0
M30
